<?xml version="1.0" encoding="utf-8"?>
<!-- Generator: IcoMoon  -->
<!DOCTYPE svg PUBLIC "-//W3C//DTD SVG 1.1//EN" "http://www.w3.org/Graphics/SVG/1.1/DTD/svg11.dtd">
<svg width="512" height="512" viewBox="0 0 512 512" data-tags="user, profile, avatar" xmlns="http://www.w3.org/2000/svg" xmlns:xlink="http://www.w3.org/1999/xlink"><metadata><license name="CC BY-SA 3.0" href="http://creativecommons.org/licenses/by-sa/3.0/"></license><author name="David Ferreira" href="http://cargocollective.com/davidferreira"></author></metadata><path d="M 444.683,368.96c-30.923-40.427-70.827-61.333-138.229-68.053c-12.171-2.443-21.333-13.227-21.333-26.027
	c0.00-9.376, 30.069-37.44, 29.856-37.643C 346.016,205.12, 362.667,152.96, 362.667,112.853C 362.667,50.56, 312.533,0.00, 250.667,0.00S 138.667,50.56, 138.667,112.853
	c0.00,40.32, 16.213,92.80, 47.573,124.907c0.00,0.00, 29.973,27.744, 29.973,37.109c0.00,13.557-10.24,24.853-23.467,26.453c-66.027,6.933-105.493,27.733-136.107,67.627
	C 47.787,380.48, 42.987,403.627, 42.667,416.00c 0.107,3.20,0.00,53.333,0.00,53.333c0.00,23.573, 19.093,42.667, 42.667,42.667l 330.667,0.00 c 23.573,0.00, 42.667-19.093, 42.667-42.667c0.00,0.00-0.107-50.133,0.00-53.333
	C 458.357,403.627, 453.547,380.48, 444.683,368.96z"></path></svg>